<svg xmlns="http://www.w3.org/2000/svg" viewBox="0 0 24 20"><style>.b{fill:#0079af;}</style><g transform="translate(0 2.368)"><path class="b" d="M18.565,10.289H6.947c-2.474,0-3.211-.737-5.368-2.895L0,5.816,1.316,4.5,2.895,6.079C4.947,8.132,5.263,8.447,6.947,8.447H18.565Z" transform="translate(0 -4.5)"/></g><g transform="translate(9.053 11.617)"><rect class="b" width="13.722" height="1.842"/></g><g transform="translate(3.684 14.55)"><path class="b" d="M25.459,31.658,23.88,30.079c-2.053-2.053-2.368-2.368-4.105-2.368H12.368c-2.474,0-3.211-.737-5.368-2.895L8.316,23.5c2.053,2.053,2.368,2.368,4.105,2.368h7.407c2.474,0,3.211.737,5.368,2.895l1.579,1.579Z" transform="translate(-7 -23.5)"/></g></svg>
